<svg width="48" height="10" viewBox="0 0 48 10" fill="white" xmlns="http://www.w3.org/2000/svg">
<path d="M0.550078 9V3.36L1.63008 2.28H5.23008V3.24H1.63008V9H0.550078ZM6.1868 9V2.28H7.2668V9H6.1868ZM6.1868 1.44V0.48H7.2668V1.44H6.1868ZM10.0143 9L8.11833 2.28H9.21033L10.8063 8.04H12.1263L13.7223 2.28H14.8143L12.9183 9H10.0143ZM15.5473 7.92V5.16L20.3473 5.04V3.24H15.7873V2.28H20.3473L21.4273 3.36V9H16.6273L15.5473 7.92ZM16.6273 6.12V8.04H20.3473V5.88L16.6273 6.12ZM22.8626 9V0.599999H23.9426V9H22.8626ZM35.4713 2.124L35.7233 2.376L35.6033 6.996L34.5833 8.016L34.7993 3.732L29.1473 9.372L28.4753 8.7L34.1033 3.06L29.8313 3.264L30.8513 2.244L35.4713 2.124ZM47.2252 9.132L42.6052 9.012L41.5852 7.992L45.8572 8.196L40.2292 2.556L40.9012 1.884L46.5532 7.524L46.3372 3.24L47.3572 4.26L47.4772 8.88L47.2252 9.132Z"/>
</svg>
